<?xml version="1.0" encoding="utf-8"?>
<!-- Generator: Adobe Illustrator 27.8.1, SVG Export Plug-In . SVG Version: 6.00 Build 0)  -->
<svg version="1.1" id="Layer_1" xmlns="http://www.w3.org/2000/svg" xmlns:xlink="http://www.w3.org/1999/xlink" x="0px" y="0px"
	 viewBox="0 0 2500 2500" style="enable-background:new 0 0 2500 2500;" xml:space="preserve">
<style type="text/css">
	.st0{fill:#A179DC;}
	.st1{fill:#280068;}
	.st2{fill:#390091;}
	.st3{fill:#FFFFFF;}
</style>
<path class="st0" d="M2351.1,740.1c0-41.6-8.9-78.4-26.9-110c-17.7-31-44.2-57.1-79.7-77.6c-293.2-169.1-586.7-337.6-879.8-506.9
	c-79-45.6-155.6-43.9-234.1,2.3c-116.7,68.8-701,403.6-875.1,504.4c-71.7,41.5-106.6,105-106.6,187.6c-0.1,340,0,680-0.1,1020
	c0,40.7,8.5,76.8,25.7,107.9c17.7,32,44.5,58.7,80.9,79.7c174.1,100.9,758.5,435.6,875.2,504.4c78.5,46.3,155.1,48,234.1,2.3
	c293.1-169.2,586.6-337.8,879.9-506.9c36.3-21,63.2-47.8,80.9-79.7c17.2-31.1,25.7-67.2,25.7-107.9
	C2351.2,1759.9,2351.2,1080.1,2351.1,740.1"/>
<path class="st1" d="M1253.4,1246.7L174.5,1867.9c17.7,32,44.5,58.7,80.9,79.7c174.1,100.9,758.5,435.6,875.2,504.4
	c78.5,46.3,155.1,48,234.1,2.3c293.1-169.2,586.6-337.8,879.9-506.9c36.3-21,63.2-47.8,80.9-79.7L1253.4,1246.7z"/>
<path class="st2" d="M2351.1,740.1c0-41.6-8.9-78.4-26.9-110l-1070.8,616.6l1072.1,621.1c17.2-31.1,25.7-67.2,25.7-107.9
	C2351.2,1759.9,2351.2,1080.1,2351.1,740.1"/>
<g>
	<path class="st3" d="M1888.6,1014.5v116.1h116.1v-116.1h58.1v116.1h116.1v58.1h-116.1v116.1h116.1v58.1h-116.1v116.1h-58.1v-116.1
		h-116.1v116.1h-58.1v-116.1h-116.1v-58.1h116.1v-116.1h-116.1v-58.1h116.1v-116.1L1888.6,1014.5z M2004.7,1188.6h-116.1v116.1
		h116.1V1188.6z"/>
	<path class="st3" d="M1255.7,431.3c302.9,0,567.3,164.5,708.9,409l-1.4-2.4l-356.3,205.2C1536.7,924.2,1408,844,1260.4,842.4
		l-4.7,0c-225.1,0-407.6,182.5-407.6,407.6c-0.1,71,18.5,140.7,53.8,202.3c70.3,122.7,202.4,205.4,353.9,205.4
		c152.5,0,285.3-83.8,355.2-207.8l-1.7,3l355.8,206.1c-140.1,242.4-400.9,406.4-700.2,409.6l-9.1,0.1
		c-303.8,0-569-165.5-710.2-411.3c-69-120-108.4-259.1-108.4-407.4C437.1,797.9,803.6,431.3,1255.7,431.3L1255.7,431.3z"/>
</g>
</svg>
